<svg width="102" height="53" viewBox="0 0 102 53" fill="none" xmlns="http://www.w3.org/2000/svg">
<path d="M6.5 0L7.95934 4.49139H12.6819L8.86126 7.26722L10.3206 11.7586L6.5 8.98278L2.6794 11.7586L4.13874 7.26722L0.318133 4.49139H5.04066L6.5 0Z" fill="black"/>
<path d="M24.3333 0L25.7927 4.49139H30.5152L26.6946 7.26722L28.1539 11.7586L24.3333 8.98278L20.5127 11.7586L21.972 7.26722L18.1514 4.49139H22.874L24.3333 0Z" fill="black"/>
<path d="M42.1667 0L43.626 4.49139H48.3486L44.528 7.26722L45.9873 11.7586L42.1667 8.98278L38.3461 11.7586L39.8054 7.26722L35.9848 4.49139H40.7073L42.1667 0Z" fill="black"/>
<path d="M60 0L61.4593 4.49139H66.1819L62.3613 7.26722L63.8206 11.7586L60 8.98278L56.1794 11.7586L57.6387 7.26722L53.8181 4.49139H58.5407L60 0Z" fill="black"/>
<path d="M77.8333 0L79.2927 4.49139H84.0152L80.1946 7.26722L81.6539 11.7586L77.8333 8.98278L74.0127 11.7586L75.472 7.26722L71.6514 4.49139H76.374L77.8333 0Z" fill="black"/>
<path d="M95.6667 0L97.126 4.49139H101.849L98.028 7.26722L99.4873 11.7586L95.6667 8.98278L91.8461 11.7586L93.3054 7.26722L89.4848 4.49139H94.2073L95.6667 0Z" fill="black"/>
<path d="M6.5 13.5L7.95934 17.9914H12.6819L8.86126 20.7672L10.3206 25.2586L6.5 22.4828L2.6794 25.2586L4.13874 20.7672L0.318133 17.9914H5.04066L6.5 13.5Z" fill="black"/>
<path d="M24.3333 13.5L25.7927 17.9914H30.5152L26.6946 20.7672L28.1539 25.2586L24.3333 22.4828L20.5127 25.2586L21.972 20.7672L18.1514 17.9914H22.874L24.3333 13.5Z" fill="black"/>
<path d="M42.1667 13.5L43.626 17.9914H48.3486L44.528 20.7672L45.9873 25.2586L42.1667 22.4828L38.3461 25.2586L39.8054 20.7672L35.9848 17.9914H40.7073L42.1667 13.5Z" fill="black"/>
<path d="M60 13.5L61.4593 17.9914H66.1819L62.3613 20.7672L63.8206 25.2586L60 22.4828L56.1794 25.2586L57.6387 20.7672L53.8181 17.9914H58.5407L60 13.5Z" fill="black"/>
<path d="M77.8333 13.5L79.2927 17.9914H84.0152L80.1946 20.7672L81.6539 25.2586L77.8333 22.4828L74.0127 25.2586L75.472 20.7672L71.6514 17.9914H76.374L77.8333 13.5Z" fill="black"/>
<path d="M95.6667 13.5L97.126 17.9914H101.849L98.028 20.7672L99.4873 25.2586L95.6667 22.4828L91.8461 25.2586L93.3054 20.7672L89.4848 17.9914H94.2073L95.6667 13.5Z" fill="black"/>
<path d="M6.5 27L7.95934 31.4914H12.6819L8.86126 34.2672L10.3206 38.7586L6.5 35.9828L2.6794 38.7586L4.13874 34.2672L0.318133 31.4914H5.04066L6.5 27Z" fill="black"/>
<path d="M24.3333 27L25.7927 31.4914H30.5152L26.6946 34.2672L28.1539 38.7586L24.3333 35.9828L20.5127 38.7586L21.972 34.2672L18.1514 31.4914H22.874L24.3333 27Z" fill="black"/>
<path d="M42.1667 27L43.626 31.4914H48.3486L44.528 34.2672L45.9873 38.7586L42.1667 35.9828L38.3461 38.7586L39.8054 34.2672L35.9848 31.4914H40.7073L42.1667 27Z" fill="black"/>
<path d="M60 27L61.4593 31.4914H66.1819L62.3613 34.2672L63.8206 38.7586L60 35.9828L56.1794 38.7586L57.6387 34.2672L53.8181 31.4914H58.5407L60 27Z" fill="black"/>
<path d="M77.8333 27L79.2927 31.4914H84.0152L80.1946 34.2672L81.6539 38.7586L77.8333 35.9828L74.0127 38.7586L75.472 34.2672L71.6514 31.4914H76.374L77.8333 27Z" fill="black"/>
<path d="M95.6667 27L97.126 31.4914H101.849L98.028 34.2672L99.4873 38.7586L95.6667 35.9828L91.8461 38.7586L93.3054 34.2672L89.4848 31.4914H94.2073L95.6667 27Z" fill="black"/>
<path d="M6.5 40.5L7.95934 44.9914H12.6819L8.86126 47.7672L10.3206 52.2586L6.5 49.4828L2.6794 52.2586L4.13874 47.7672L0.318133 44.9914H5.04066L6.5 40.5Z" fill="black"/>
<path d="M24.3333 40.5L25.7927 44.9914H30.5152L26.6946 47.7672L28.1539 52.2586L24.3333 49.4828L20.5127 52.2586L21.972 47.7672L18.1514 44.9914H22.874L24.3333 40.5Z" fill="black"/>
<path d="M42.1667 40.5L43.626 44.9914H48.3486L44.528 47.7672L45.9873 52.2586L42.1667 49.4828L38.3461 52.2586L39.8054 47.7672L35.9848 44.9914H40.7073L42.1667 40.5Z" fill="black"/>
<path d="M60 40.5L61.4593 44.9914H66.1819L62.3613 47.7672L63.8206 52.2586L60 49.4828L56.1794 52.2586L57.6387 47.7672L53.8181 44.9914H58.5407L60 40.5Z" fill="black"/>
<path d="M77.8333 40.5L79.2927 44.9914H84.0152L80.1946 47.7672L81.6539 52.2586L77.8333 49.4828L74.0127 52.2586L75.472 47.7672L71.6514 44.9914H76.374L77.8333 40.5Z" fill="black"/>
<path d="M95.6667 40.5L97.126 44.9914H101.849L98.028 47.7672L99.4873 52.2586L95.6667 49.4828L91.8461 52.2586L93.3054 47.7672L89.4848 44.9914H94.2073L95.6667 40.5Z" fill="black"/>
</svg>
