<svg width="530" height="563" viewBox="0 0 530 563" fill="none" xmlns="http://www.w3.org/2000/svg">
<path d="M529.069 283.792C533.63 340.3 501.684 379.244 462.143 434.641C422.603 490.039 391.807 548.413 331.365 560.78C270.924 573.148 225.957 531.372 159.936 496.477C93.9159 461.582 13.6068 442.281 1.26276 386.307C-11.0813 330.333 70.4663 286.558 98.2161 216.608C125.966 146.657 93.6219 77.154 140.012 36.5556C186.402 -4.0428 270.3 -9.49334 330.166 13.6158C390.031 36.7249 399.558 98.066 439.339 152.101C479.119 206.137 524.508 227.284 529.069 283.792Z" fill="url(#paint0_linear_128_630)"/>
<defs>
<linearGradient id="paint0_linear_128_630" x1="264.752" y1="0" x2="264.752" y2="563" gradientUnits="userSpaceOnUse">
<stop stop-color="#1D4ED8"/>
<stop offset="1" stop-color="white"/>
</linearGradient>
</defs>
</svg>
